<?xml version="1.0" encoding="UTF-8"?>
<svg id="Layer_1" data-name="Layer 1" xmlns="http://www.w3.org/2000/svg" viewBox="0 0 825.5 178.62">
  <defs>
    <style>
      .cls-1 {
        fill: #44c48c;
      }

      .cls-2 {
        fill: #2d709e;
      }
    </style>
  </defs>
  <path class="cls-1" d="m165.81,0h-85.7c-3.7,0-7.34.25-10.9.74-6.39.86-12.56,2.49-18.4,4.79-7.96,3.13-15.3,7.5-21.78,12.87-3.87,3.21-7.42,6.77-10.63,10.63-4.46,5.37-8.22,11.33-11.16,17.74-2.65,5.8-4.63,11.97-5.84,18.4-.92,4.83-1.4,9.83-1.4,14.93v28.13c0,6.81,5.52,12.34,12.34,12.34h38.47v45.71c0,6.81,5.52,12.34,12.34,12.34h35.37c8.8,0,17.27-1.42,25.21-4.05v-19.51c-15.83,6.56-33.71,5.25-52.45,5.18-1.14,0-2.06-.92-2.06-2.06v-37.61h51.76v-18.4h-51.76v-18.49c0-10.22,8.29-18.51,18.51-18.51h36v-18.4h-35.9c-20.44,0-37.01,16.57-37.01,37.01v18.38h-30.35c-1.14,0-2.06-.92-2.06-2.06v-20.01c0-5.14.64-10.14,1.83-14.93,1.64-6.62,4.36-12.83,7.98-18.4,5.61-8.78,13.41-16.02,22.6-20.99,5.65-3.06,11.84-5.26,18.4-6.39,3.54-.66,7.18-.99,10.9-.99h77.58c1.14,0,2.06.92,2.06,2.06v79.59c0,6.95-1.05,13.9-3.53,20.39-.02.05-.03.09-.05.14-1.05,2.74-2.29,5.37-3.7,7.9h.01s-.04.06-.06.09c-1.71,3.06-3.69,5.95-5.88,8.66-3.83,4.91-7.87,8.77-12.1,11.83v21.06c5.43-2.71,10.51-6.05,15.13-9.89,3.68-3.04,7.09-6.42,10.18-10.08,7.2-8.51,12.65-18.57,15.79-29.59.01-.04.02-.09.04-.13,1.84-6.44,2.57-13.15,2.57-19.85V12.34c0-6.81-5.52-12.34-12.34-12.34Z"/>
  <g>
    <path class="cls-2" d="m215,33.96v37.34h23.26v7.88h-31.78v-45.22h8.53Z"/>
    <path class="cls-2" d="m280.71,79.18h-33.85v-45.22h33.85v8.27h-25.39v10.4h24.48v7.95h-24.48v10.21h25.39v8.4Z"/>
    <path class="cls-2" d="m324.86,70.65h-23.64l-3.88,8.53h-9.24l20.28-45.22h9.3l20.28,45.22h-9.3l-3.81-8.53Zm-11.82-27.2l-8.4,19.25h16.79l-8.4-19.25Z"/>
    <path class="cls-2" d="m386.55,56.18c.19,11.43-6.78,23-22.61,23h-17.77v-45.22h17.77c15.5,0,22.41,11.05,22.61,22.22Zm-31.92,14.79h9.31c10.27,0,14.34-7.49,14.15-14.86-.19-7.04-4.33-14.08-14.15-14.08h-9.31v28.94Z"/>
    <path class="cls-2" d="m431.14,79.18h-33.85v-45.22h33.85v8.27h-25.39v10.4h24.48v7.95h-24.48v10.21h25.39v8.4Z"/>
    <path class="cls-2" d="m483.54,79.18h-9.75l-13.11-15.12h-8.66v15.12h-8.53v-45.28c7.17,0,14.34.06,21.51.06,10.66.07,16.28,7.17,16.28,14.99,0,6.2-2.84,12.47-11.43,14.21l13.69,15.44v.58Zm-31.52-37.27v14.47h12.99c5.42,0,7.75-3.62,7.75-7.24s-2.39-7.24-7.75-7.24h-12.99Z"/>
  </g>
  <g>
    <path class="cls-1" d="m240.32,143.69h-33.85v-45.22h33.85v8.27h-25.39v10.4h24.48v7.95h-24.48v10.21h25.39v8.4Z"/>
    <path class="cls-1" d="m283.62,128.9v-30.43h8.53v45.22h-6.91l-24.03-30.1v30.1h-8.53v-45.22h6.91l24.03,30.43Z"/>
    <path class="cls-1" d="m328.06,143.89h-8.85l-18.8-45.41h9.56l13.63,35.21,13.69-35.21h9.56l-18.8,45.41Z"/>
    <path class="cls-1" d="m355.15,143.69v-45.22h8.46v45.22h-8.46Z"/>
    <path class="cls-1" d="m417.01,143.69h-9.75l-13.11-15.12h-8.66v15.12h-8.53v-45.28c7.17,0,14.34.06,21.51.06,10.66.07,16.28,7.17,16.28,14.99,0,6.2-2.84,12.47-11.43,14.21l13.69,15.44v.58Zm-31.52-37.27v14.47h12.99c5.42,0,7.75-3.62,7.75-7.24s-2.39-7.24-7.75-7.24h-12.99Z"/>
    <path class="cls-1" d="m469.75,121.34c-.13,11.69-7.3,23.39-23.19,23.39s-23.26-11.43-23.26-23.32c0-14.28,10.34-23.84,23.45-23.84,15.44.13,23.12,12.02,22.99,23.77Zm-23.19,15.57c10.66,0,14.66-8.01,14.79-15.44.13-7.56-4.2-15.96-14.6-16.15-9.63,0-15.31,7.24-15.05,16.22.19,7.43,4.2,15.37,14.86,15.37Z"/>
    <path class="cls-1" d="m511.49,128.9v-30.43h8.53v45.22h-6.91l-24.03-30.1v30.1h-8.53v-45.22h6.91l24.03,30.43Z"/>
    <path class="cls-1" d="m564.43,128.9v-30.43h8.53v45.22h-6.91l-24.03-30.1v30.1h-8.53v-45.22h6.91l24.03,30.43Z"/>
    <path class="cls-1" d="m620.28,143.69h-33.85v-45.22h33.85v8.27h-25.39v10.4h24.48v7.95h-24.48v10.21h25.39v8.4Z"/>
    <path class="cls-1" d="m671.98,110.94l-14.73,19.64h-1.68l-14.4-19.7v32.88h-8.53v-45.22h9.82l14.15,19.44,14.15-19.44h9.75v45.22h-8.53v-32.82Z"/>
    <path class="cls-1" d="m727.86,143.69h-33.85v-45.22h33.85v8.27h-25.39v10.4h24.48v7.95h-24.48v10.21h25.39v8.4Z"/>
    <path class="cls-1" d="m771.16,128.9v-30.43h8.53v45.22h-6.91l-24.03-30.1v30.1h-8.53v-45.22h6.91l24.03,30.43Z"/>
    <path class="cls-1" d="m802.63,106.23h-14.34v-7.75h37.21v7.75h-14.34v37.47h-8.53v-37.47Z"/>
  </g>
</svg>